<mxfile host="app.diagrams.net" modified="2020-10-08T19:36:29.838Z" agent="5.0 (X11)" etag="rkxU7K-XEgc-r3U476Vr" version="13.7.9" type="github" pages="2">
  <diagram id="C5RBs43oDa-KdzZeNtuy" name="Page-1">
    <mxGraphModel dx="1422" dy="861" grid="1" gridSize="10" guides="1" tooltips="1" connect="1" arrows="1" fold="1" page="1" pageScale="1" pageWidth="1654" pageHeight="2336" math="0" shadow="0">
      <root>
        <mxCell id="WIyWlLk6GJQsqaUBKTNV-0" />
        <mxCell id="WIyWlLk6GJQsqaUBKTNV-1" parent="WIyWlLk6GJQsqaUBKTNV-0" />
        <mxCell id="ZOIO8PiVUenInlwV7Wmb-88" style="edgeStyle=orthogonalEdgeStyle;rounded=0;orthogonalLoop=1;jettySize=auto;html=1;entryX=0;entryY=0.5;entryDx=0;entryDy=0;" edge="1" parent="WIyWlLk6GJQsqaUBKTNV-1" source="WIyWlLk6GJQsqaUBKTNV-3" target="UZnxH5_KKz7nb18Rbbq1-2">
          <mxGeometry relative="1" as="geometry">
            <mxPoint x="450" y="140" as="targetPoint" />
            <Array as="points">
              <mxPoint x="390" y="155" />
            </Array>
          </mxGeometry>
        </mxCell>
        <mxCell id="WIyWlLk6GJQsqaUBKTNV-3" value="I1" style="rounded=1;whiteSpace=wrap;html=1;fontSize=12;glass=0;strokeWidth=1;shadow=0;" parent="WIyWlLk6GJQsqaUBKTNV-1" vertex="1">
          <mxGeometry x="330" y="20" width="120" height="40" as="geometry" />
        </mxCell>
        <mxCell id="UZnxH5_KKz7nb18Rbbq1-3" style="edgeStyle=orthogonalEdgeStyle;rounded=0;orthogonalLoop=1;jettySize=auto;html=1;" edge="1" parent="WIyWlLk6GJQsqaUBKTNV-1" source="UZnxH5_KKz7nb18Rbbq1-0" target="UZnxH5_KKz7nb18Rbbq1-2">
          <mxGeometry relative="1" as="geometry" />
        </mxCell>
        <mxCell id="UZnxH5_KKz7nb18Rbbq1-0" value="I2" style="rounded=1;whiteSpace=wrap;html=1;fontSize=12;glass=0;strokeWidth=1;shadow=0;" vertex="1" parent="WIyWlLk6GJQsqaUBKTNV-1">
          <mxGeometry x="500" y="20" width="120" height="40" as="geometry" />
        </mxCell>
        <mxCell id="ZOIO8PiVUenInlwV7Wmb-89" style="edgeStyle=orthogonalEdgeStyle;rounded=0;orthogonalLoop=1;jettySize=auto;html=1;" edge="1" parent="WIyWlLk6GJQsqaUBKTNV-1" source="UZnxH5_KKz7nb18Rbbq1-2" target="UZnxH5_KKz7nb18Rbbq1-5">
          <mxGeometry relative="1" as="geometry" />
        </mxCell>
        <mxCell id="UZnxH5_KKz7nb18Rbbq1-2" value="&lt;div&gt;combine_images&lt;/div&gt;" style="ellipse;whiteSpace=wrap;html=1;aspect=fixed;" vertex="1" parent="WIyWlLk6GJQsqaUBKTNV-1">
          <mxGeometry x="570" y="120" width="70" height="70" as="geometry" />
        </mxCell>
        <mxCell id="UZnxH5_KKz7nb18Rbbq1-8" style="edgeStyle=orthogonalEdgeStyle;rounded=0;orthogonalLoop=1;jettySize=auto;html=1;" edge="1" parent="WIyWlLk6GJQsqaUBKTNV-1" source="UZnxH5_KKz7nb18Rbbq1-5" target="UZnxH5_KKz7nb18Rbbq1-7">
          <mxGeometry relative="1" as="geometry" />
        </mxCell>
        <mxCell id="ZOIO8PiVUenInlwV7Wmb-94" style="edgeStyle=orthogonalEdgeStyle;rounded=0;orthogonalLoop=1;jettySize=auto;html=1;exitX=0.5;exitY=1;exitDx=0;exitDy=0;entryX=0.5;entryY=0;entryDx=0;entryDy=0;" edge="1" parent="WIyWlLk6GJQsqaUBKTNV-1" source="UZnxH5_KKz7nb18Rbbq1-5" target="UZnxH5_KKz7nb18Rbbq1-9">
          <mxGeometry relative="1" as="geometry" />
        </mxCell>
        <mxCell id="UZnxH5_KKz7nb18Rbbq1-5" value="inp" style="rounded=1;whiteSpace=wrap;html=1;" vertex="1" parent="WIyWlLk6GJQsqaUBKTNV-1">
          <mxGeometry x="450" y="295" width="120" height="50" as="geometry" />
        </mxCell>
        <mxCell id="ZOIO8PiVUenInlwV7Wmb-95" style="edgeStyle=orthogonalEdgeStyle;rounded=0;orthogonalLoop=1;jettySize=auto;html=1;exitX=1;exitY=0.5;exitDx=0;exitDy=0;entryX=0.5;entryY=1;entryDx=0;entryDy=0;" edge="1" parent="WIyWlLk6GJQsqaUBKTNV-1" source="UZnxH5_KKz7nb18Rbbq1-7" target="ZOIO8PiVUenInlwV7Wmb-77">
          <mxGeometry relative="1" as="geometry" />
        </mxCell>
        <mxCell id="ZOIO8PiVUenInlwV7Wmb-98" style="edgeStyle=orthogonalEdgeStyle;rounded=0;orthogonalLoop=1;jettySize=auto;html=1;exitX=0;exitY=0.5;exitDx=0;exitDy=0;entryX=0.5;entryY=0;entryDx=0;entryDy=0;" edge="1" parent="WIyWlLk6GJQsqaUBKTNV-1" source="UZnxH5_KKz7nb18Rbbq1-7" target="UZnxH5_KKz7nb18Rbbq1-11">
          <mxGeometry relative="1" as="geometry" />
        </mxCell>
        <mxCell id="UZnxH5_KKz7nb18Rbbq1-7" value="filter_finder" style="rhombus;whiteSpace=wrap;html=1;" vertex="1" parent="WIyWlLk6GJQsqaUBKTNV-1">
          <mxGeometry x="330" y="390" width="80" height="80" as="geometry" />
        </mxCell>
        <mxCell id="ZOIO8PiVUenInlwV7Wmb-73" style="edgeStyle=orthogonalEdgeStyle;rounded=0;orthogonalLoop=1;jettySize=auto;html=1;exitX=0;exitY=0.5;exitDx=0;exitDy=0;entryX=0.45;entryY=-0.017;entryDx=0;entryDy=0;entryPerimeter=0;" edge="1" parent="WIyWlLk6GJQsqaUBKTNV-1" source="UZnxH5_KKz7nb18Rbbq1-9" target="UZnxH5_KKz7nb18Rbbq1-13">
          <mxGeometry relative="1" as="geometry" />
        </mxCell>
        <mxCell id="ZOIO8PiVUenInlwV7Wmb-80" style="edgeStyle=orthogonalEdgeStyle;rounded=0;orthogonalLoop=1;jettySize=auto;html=1;exitX=1;exitY=0.5;exitDx=0;exitDy=0;entryX=0.5;entryY=1;entryDx=0;entryDy=0;" edge="1" parent="WIyWlLk6GJQsqaUBKTNV-1" source="UZnxH5_KKz7nb18Rbbq1-9" target="ZOIO8PiVUenInlwV7Wmb-79">
          <mxGeometry relative="1" as="geometry" />
        </mxCell>
        <mxCell id="UZnxH5_KKz7nb18Rbbq1-9" value="&lt;div&gt;filter&lt;/div&gt;&lt;div&gt;describe&lt;/div&gt;" style="rhombus;whiteSpace=wrap;html=1;" vertex="1" parent="WIyWlLk6GJQsqaUBKTNV-1">
          <mxGeometry x="710" y="400" width="80" height="80" as="geometry" />
        </mxCell>
        <mxCell id="UZnxH5_KKz7nb18Rbbq1-16" style="edgeStyle=orthogonalEdgeStyle;rounded=0;orthogonalLoop=1;jettySize=auto;html=1;" edge="1" parent="WIyWlLk6GJQsqaUBKTNV-1" source="UZnxH5_KKz7nb18Rbbq1-11" target="UZnxH5_KKz7nb18Rbbq1-15">
          <mxGeometry relative="1" as="geometry" />
        </mxCell>
        <mxCell id="UZnxH5_KKz7nb18Rbbq1-11" value="flow_weights" style="rounded=1;whiteSpace=wrap;html=1;" vertex="1" parent="WIyWlLk6GJQsqaUBKTNV-1">
          <mxGeometry x="170" y="500" width="120" height="60" as="geometry" />
        </mxCell>
        <mxCell id="ZOIO8PiVUenInlwV7Wmb-101" style="edgeStyle=orthogonalEdgeStyle;rounded=0;orthogonalLoop=1;jettySize=auto;html=1;exitX=0.5;exitY=1;exitDx=0;exitDy=0;entryX=0.5;entryY=0;entryDx=0;entryDy=0;" edge="1" parent="WIyWlLk6GJQsqaUBKTNV-1" source="UZnxH5_KKz7nb18Rbbq1-13" target="UZnxH5_KKz7nb18Rbbq1-19">
          <mxGeometry relative="1" as="geometry" />
        </mxCell>
        <mxCell id="UZnxH5_KKz7nb18Rbbq1-13" value="describe_weights" style="rounded=1;whiteSpace=wrap;html=1;" vertex="1" parent="WIyWlLk6GJQsqaUBKTNV-1">
          <mxGeometry x="540" y="500" width="120" height="60" as="geometry" />
        </mxCell>
        <mxCell id="UZnxH5_KKz7nb18Rbbq1-18" style="edgeStyle=orthogonalEdgeStyle;rounded=0;orthogonalLoop=1;jettySize=auto;html=1;" edge="1" parent="WIyWlLk6GJQsqaUBKTNV-1" source="UZnxH5_KKz7nb18Rbbq1-15" target="UZnxH5_KKz7nb18Rbbq1-17">
          <mxGeometry relative="1" as="geometry" />
        </mxCell>
        <mxCell id="UZnxH5_KKz7nb18Rbbq1-15" value="split_image" style="ellipse;whiteSpace=wrap;html=1;aspect=fixed;" vertex="1" parent="WIyWlLk6GJQsqaUBKTNV-1">
          <mxGeometry x="190" y="610" width="80" height="80" as="geometry" />
        </mxCell>
        <mxCell id="UZnxH5_KKz7nb18Rbbq1-24" style="edgeStyle=orthogonalEdgeStyle;rounded=0;orthogonalLoop=1;jettySize=auto;html=1;" edge="1" parent="WIyWlLk6GJQsqaUBKTNV-1" source="UZnxH5_KKz7nb18Rbbq1-17" target="UZnxH5_KKz7nb18Rbbq1-23">
          <mxGeometry relative="1" as="geometry" />
        </mxCell>
        <mxCell id="UZnxH5_KKz7nb18Rbbq1-17" value="flow_parts" style="rounded=1;whiteSpace=wrap;html=1;" vertex="1" parent="WIyWlLk6GJQsqaUBKTNV-1">
          <mxGeometry x="170" y="730" width="120" height="60" as="geometry" />
        </mxCell>
        <mxCell id="UZnxH5_KKz7nb18Rbbq1-22" style="edgeStyle=orthogonalEdgeStyle;rounded=0;orthogonalLoop=1;jettySize=auto;html=1;" edge="1" parent="WIyWlLk6GJQsqaUBKTNV-1" source="UZnxH5_KKz7nb18Rbbq1-19" target="UZnxH5_KKz7nb18Rbbq1-21">
          <mxGeometry relative="1" as="geometry" />
        </mxCell>
        <mxCell id="UZnxH5_KKz7nb18Rbbq1-19" value="split_image" style="ellipse;whiteSpace=wrap;html=1;aspect=fixed;" vertex="1" parent="WIyWlLk6GJQsqaUBKTNV-1">
          <mxGeometry x="560" y="610" width="80" height="80" as="geometry" />
        </mxCell>
        <mxCell id="UZnxH5_KKz7nb18Rbbq1-28" style="edgeStyle=orthogonalEdgeStyle;rounded=0;orthogonalLoop=1;jettySize=auto;html=1;exitX=0.5;exitY=1;exitDx=0;exitDy=0;" edge="1" parent="WIyWlLk6GJQsqaUBKTNV-1" source="UZnxH5_KKz7nb18Rbbq1-21" target="UZnxH5_KKz7nb18Rbbq1-27">
          <mxGeometry relative="1" as="geometry" />
        </mxCell>
        <mxCell id="UZnxH5_KKz7nb18Rbbq1-21" value="describe_parts" style="rounded=1;whiteSpace=wrap;html=1;" vertex="1" parent="WIyWlLk6GJQsqaUBKTNV-1">
          <mxGeometry x="540" y="730" width="120" height="60" as="geometry" />
        </mxCell>
        <mxCell id="ZOIO8PiVUenInlwV7Wmb-51" style="edgeStyle=orthogonalEdgeStyle;rounded=0;orthogonalLoop=1;jettySize=auto;html=1;entryX=0.5;entryY=1;entryDx=0;entryDy=0;" edge="1" parent="WIyWlLk6GJQsqaUBKTNV-1" source="UZnxH5_KKz7nb18Rbbq1-23" target="ZOIO8PiVUenInlwV7Wmb-50">
          <mxGeometry relative="1" as="geometry" />
        </mxCell>
        <mxCell id="ZOIO8PiVUenInlwV7Wmb-100" style="edgeStyle=orthogonalEdgeStyle;rounded=0;orthogonalLoop=1;jettySize=auto;html=1;exitX=0;exitY=0.5;exitDx=0;exitDy=0;entryX=0.5;entryY=0;entryDx=0;entryDy=0;" edge="1" parent="WIyWlLk6GJQsqaUBKTNV-1" source="UZnxH5_KKz7nb18Rbbq1-23" target="UZnxH5_KKz7nb18Rbbq1-25">
          <mxGeometry relative="1" as="geometry" />
        </mxCell>
        <mxCell id="UZnxH5_KKz7nb18Rbbq1-23" value="full_finder" style="rhombus;whiteSpace=wrap;html=1;" vertex="1" parent="WIyWlLk6GJQsqaUBKTNV-1">
          <mxGeometry x="190" y="830" width="80" height="80" as="geometry" />
        </mxCell>
        <mxCell id="ZOIO8PiVUenInlwV7Wmb-5" style="edgeStyle=orthogonalEdgeStyle;rounded=0;orthogonalLoop=1;jettySize=auto;html=1;entryX=0.5;entryY=0;entryDx=0;entryDy=0;" edge="1" parent="WIyWlLk6GJQsqaUBKTNV-1" source="UZnxH5_KKz7nb18Rbbq1-25" target="ZOIO8PiVUenInlwV7Wmb-4">
          <mxGeometry relative="1" as="geometry" />
        </mxCell>
        <mxCell id="UZnxH5_KKz7nb18Rbbq1-25" value="straight" style="rounded=1;whiteSpace=wrap;html=1;" vertex="1" parent="WIyWlLk6GJQsqaUBKTNV-1">
          <mxGeometry x="40" y="950" width="120" height="60" as="geometry" />
        </mxCell>
        <mxCell id="ZOIO8PiVUenInlwV7Wmb-66" style="edgeStyle=orthogonalEdgeStyle;rounded=0;orthogonalLoop=1;jettySize=auto;html=1;entryX=0.5;entryY=1;entryDx=0;entryDy=0;" edge="1" parent="WIyWlLk6GJQsqaUBKTNV-1" source="UZnxH5_KKz7nb18Rbbq1-27" target="ZOIO8PiVUenInlwV7Wmb-59">
          <mxGeometry relative="1" as="geometry" />
        </mxCell>
        <mxCell id="ZOIO8PiVUenInlwV7Wmb-120" style="edgeStyle=orthogonalEdgeStyle;rounded=0;orthogonalLoop=1;jettySize=auto;html=1;exitX=0;exitY=0.5;exitDx=0;exitDy=0;entryX=0.5;entryY=0;entryDx=0;entryDy=0;" edge="1" parent="WIyWlLk6GJQsqaUBKTNV-1" source="UZnxH5_KKz7nb18Rbbq1-27" target="UZnxH5_KKz7nb18Rbbq1-29">
          <mxGeometry relative="1" as="geometry" />
        </mxCell>
        <mxCell id="UZnxH5_KKz7nb18Rbbq1-27" value="full_describe" style="rhombus;whiteSpace=wrap;html=1;" vertex="1" parent="WIyWlLk6GJQsqaUBKTNV-1">
          <mxGeometry x="720" y="860" width="80" height="80" as="geometry" />
        </mxCell>
        <mxCell id="UZnxH5_KKz7nb18Rbbq1-32" style="edgeStyle=orthogonalEdgeStyle;rounded=0;orthogonalLoop=1;jettySize=auto;html=1;entryX=0.5;entryY=0;entryDx=0;entryDy=0;" edge="1" parent="WIyWlLk6GJQsqaUBKTNV-1" source="UZnxH5_KKz7nb18Rbbq1-29" target="UZnxH5_KKz7nb18Rbbq1-31">
          <mxGeometry relative="1" as="geometry" />
        </mxCell>
        <mxCell id="UZnxH5_KKz7nb18Rbbq1-29" value="&lt;div&gt;describtion&lt;/div&gt;" style="rounded=1;whiteSpace=wrap;html=1;" vertex="1" parent="WIyWlLk6GJQsqaUBKTNV-1">
          <mxGeometry x="600" y="990" width="120" height="60" as="geometry" />
        </mxCell>
        <mxCell id="UZnxH5_KKz7nb18Rbbq1-34" style="edgeStyle=orthogonalEdgeStyle;rounded=0;orthogonalLoop=1;jettySize=auto;html=1;" edge="1" parent="WIyWlLk6GJQsqaUBKTNV-1" source="UZnxH5_KKz7nb18Rbbq1-31" target="UZnxH5_KKz7nb18Rbbq1-33">
          <mxGeometry relative="1" as="geometry" />
        </mxCell>
        <mxCell id="UZnxH5_KKz7nb18Rbbq1-31" value="prepare_weigths" style="ellipse;whiteSpace=wrap;html=1;aspect=fixed;" vertex="1" parent="WIyWlLk6GJQsqaUBKTNV-1">
          <mxGeometry x="620" y="1080" width="80" height="80" as="geometry" />
        </mxCell>
        <mxCell id="ZOIO8PiVUenInlwV7Wmb-37" style="edgeStyle=orthogonalEdgeStyle;rounded=0;orthogonalLoop=1;jettySize=auto;html=1;entryX=0.5;entryY=0;entryDx=0;entryDy=0;" edge="1" parent="WIyWlLk6GJQsqaUBKTNV-1" source="UZnxH5_KKz7nb18Rbbq1-33" target="ZOIO8PiVUenInlwV7Wmb-0">
          <mxGeometry relative="1" as="geometry" />
        </mxCell>
        <mxCell id="UZnxH5_KKz7nb18Rbbq1-33" value="compare_input" style="rounded=1;whiteSpace=wrap;html=1;" vertex="1" parent="WIyWlLk6GJQsqaUBKTNV-1">
          <mxGeometry x="600" y="1198" width="120" height="60" as="geometry" />
        </mxCell>
        <mxCell id="ZOIO8PiVUenInlwV7Wmb-117" style="edgeStyle=orthogonalEdgeStyle;rounded=0;orthogonalLoop=1;jettySize=auto;html=1;exitX=1;exitY=0.5;exitDx=0;exitDy=0;entryX=0.5;entryY=1;entryDx=0;entryDy=0;" edge="1" parent="WIyWlLk6GJQsqaUBKTNV-1" source="ZOIO8PiVUenInlwV7Wmb-0" target="ZOIO8PiVUenInlwV7Wmb-33">
          <mxGeometry relative="1" as="geometry" />
        </mxCell>
        <mxCell id="ZOIO8PiVUenInlwV7Wmb-118" style="edgeStyle=orthogonalEdgeStyle;rounded=0;orthogonalLoop=1;jettySize=auto;html=1;exitX=0;exitY=0.5;exitDx=0;exitDy=0;entryX=0.5;entryY=0;entryDx=0;entryDy=0;" edge="1" parent="WIyWlLk6GJQsqaUBKTNV-1" source="ZOIO8PiVUenInlwV7Wmb-0" target="ZOIO8PiVUenInlwV7Wmb-2">
          <mxGeometry relative="1" as="geometry" />
        </mxCell>
        <mxCell id="ZOIO8PiVUenInlwV7Wmb-0" value="compare_net" style="rhombus;whiteSpace=wrap;html=1;" vertex="1" parent="WIyWlLk6GJQsqaUBKTNV-1">
          <mxGeometry x="620" y="1330" width="80" height="80" as="geometry" />
        </mxCell>
        <mxCell id="ZOIO8PiVUenInlwV7Wmb-10" style="edgeStyle=orthogonalEdgeStyle;rounded=0;orthogonalLoop=1;jettySize=auto;html=1;entryX=1;entryY=0.5;entryDx=0;entryDy=0;" edge="1" parent="WIyWlLk6GJQsqaUBKTNV-1" source="ZOIO8PiVUenInlwV7Wmb-2" target="ZOIO8PiVUenInlwV7Wmb-8">
          <mxGeometry relative="1" as="geometry" />
        </mxCell>
        <mxCell id="ZOIO8PiVUenInlwV7Wmb-2" value="similarity" style="rounded=1;whiteSpace=wrap;html=1;" vertex="1" parent="WIyWlLk6GJQsqaUBKTNV-1">
          <mxGeometry x="535" y="1770" width="120" height="60" as="geometry" />
        </mxCell>
        <mxCell id="ZOIO8PiVUenInlwV7Wmb-121" style="edgeStyle=orthogonalEdgeStyle;rounded=0;orthogonalLoop=1;jettySize=auto;html=1;exitX=0.5;exitY=1;exitDx=0;exitDy=0;entryX=0;entryY=0.5;entryDx=0;entryDy=0;" edge="1" parent="WIyWlLk6GJQsqaUBKTNV-1" source="ZOIO8PiVUenInlwV7Wmb-4" target="ZOIO8PiVUenInlwV7Wmb-6">
          <mxGeometry relative="1" as="geometry" />
        </mxCell>
        <mxCell id="ZOIO8PiVUenInlwV7Wmb-4" value="&lt;div&gt;phase&lt;/div&gt;&lt;div&gt;space&lt;/div&gt;&lt;div&gt;view&lt;br&gt;&lt;/div&gt;" style="ellipse;whiteSpace=wrap;html=1;aspect=fixed;" vertex="1" parent="WIyWlLk6GJQsqaUBKTNV-1">
          <mxGeometry x="10" y="1128" width="80" height="80" as="geometry" />
        </mxCell>
        <mxCell id="ZOIO8PiVUenInlwV7Wmb-9" style="edgeStyle=orthogonalEdgeStyle;rounded=0;orthogonalLoop=1;jettySize=auto;html=1;" edge="1" parent="WIyWlLk6GJQsqaUBKTNV-1" source="ZOIO8PiVUenInlwV7Wmb-6" target="ZOIO8PiVUenInlwV7Wmb-8">
          <mxGeometry relative="1" as="geometry" />
        </mxCell>
        <mxCell id="ZOIO8PiVUenInlwV7Wmb-6" value="interest" style="rounded=1;whiteSpace=wrap;html=1;" vertex="1" parent="WIyWlLk6GJQsqaUBKTNV-1">
          <mxGeometry x="50" y="1770" width="120" height="60" as="geometry" />
        </mxCell>
        <mxCell id="ZOIO8PiVUenInlwV7Wmb-12" style="edgeStyle=orthogonalEdgeStyle;rounded=0;orthogonalLoop=1;jettySize=auto;html=1;exitX=0.5;exitY=0;exitDx=0;exitDy=0;entryX=0.5;entryY=1;entryDx=0;entryDy=0;" edge="1" parent="WIyWlLk6GJQsqaUBKTNV-1" source="ZOIO8PiVUenInlwV7Wmb-8" target="ZOIO8PiVUenInlwV7Wmb-11">
          <mxGeometry relative="1" as="geometry" />
        </mxCell>
        <mxCell id="ZOIO8PiVUenInlwV7Wmb-110" style="edgeStyle=orthogonalEdgeStyle;rounded=0;orthogonalLoop=1;jettySize=auto;html=1;exitX=0;exitY=0;exitDx=0;exitDy=0;entryX=0.5;entryY=1;entryDx=0;entryDy=0;" edge="1" parent="WIyWlLk6GJQsqaUBKTNV-1" source="ZOIO8PiVUenInlwV7Wmb-8" target="ZOIO8PiVUenInlwV7Wmb-17">
          <mxGeometry relative="1" as="geometry" />
        </mxCell>
        <mxCell id="ZOIO8PiVUenInlwV7Wmb-111" style="edgeStyle=orthogonalEdgeStyle;rounded=0;orthogonalLoop=1;jettySize=auto;html=1;exitX=1;exitY=0;exitDx=0;exitDy=0;entryX=0.5;entryY=1;entryDx=0;entryDy=0;" edge="1" parent="WIyWlLk6GJQsqaUBKTNV-1" source="ZOIO8PiVUenInlwV7Wmb-8" target="ZOIO8PiVUenInlwV7Wmb-21">
          <mxGeometry relative="1" as="geometry" />
        </mxCell>
        <mxCell id="ZOIO8PiVUenInlwV7Wmb-8" value="&lt;div&gt;get&lt;/div&gt;&lt;div&gt;weights&lt;br&gt;&lt;/div&gt;" style="ellipse;whiteSpace=wrap;html=1;aspect=fixed;" vertex="1" parent="WIyWlLk6GJQsqaUBKTNV-1">
          <mxGeometry x="280" y="1760" width="80" height="80" as="geometry" />
        </mxCell>
        <mxCell id="ZOIO8PiVUenInlwV7Wmb-14" style="edgeStyle=orthogonalEdgeStyle;rounded=0;orthogonalLoop=1;jettySize=auto;html=1;entryX=0.5;entryY=1;entryDx=0;entryDy=0;" edge="1" parent="WIyWlLk6GJQsqaUBKTNV-1" source="ZOIO8PiVUenInlwV7Wmb-11" target="ZOIO8PiVUenInlwV7Wmb-13">
          <mxGeometry relative="1" as="geometry" />
        </mxCell>
        <mxCell id="ZOIO8PiVUenInlwV7Wmb-11" value="weights" style="rounded=1;whiteSpace=wrap;html=1;" vertex="1" parent="WIyWlLk6GJQsqaUBKTNV-1">
          <mxGeometry x="260" y="1650" width="120" height="60" as="geometry" />
        </mxCell>
        <mxCell id="ZOIO8PiVUenInlwV7Wmb-16" style="edgeStyle=orthogonalEdgeStyle;rounded=0;orthogonalLoop=1;jettySize=auto;html=1;entryX=0.5;entryY=1;entryDx=0;entryDy=0;" edge="1" parent="WIyWlLk6GJQsqaUBKTNV-1" source="ZOIO8PiVUenInlwV7Wmb-13" target="ZOIO8PiVUenInlwV7Wmb-15">
          <mxGeometry relative="1" as="geometry" />
        </mxCell>
        <mxCell id="ZOIO8PiVUenInlwV7Wmb-13" value="geometry_c" style="ellipse;whiteSpace=wrap;html=1;aspect=fixed;" vertex="1" parent="WIyWlLk6GJQsqaUBKTNV-1">
          <mxGeometry x="280" y="1550" width="80" height="80" as="geometry" />
        </mxCell>
        <mxCell id="ZOIO8PiVUenInlwV7Wmb-112" style="edgeStyle=orthogonalEdgeStyle;rounded=0;orthogonalLoop=1;jettySize=auto;html=1;exitX=0;exitY=0.5;exitDx=0;exitDy=0;entryX=1;entryY=0.5;entryDx=0;entryDy=0;" edge="1" parent="WIyWlLk6GJQsqaUBKTNV-1" source="ZOIO8PiVUenInlwV7Wmb-15" target="ZOIO8PiVUenInlwV7Wmb-20">
          <mxGeometry relative="1" as="geometry" />
        </mxCell>
        <mxCell id="ZOIO8PiVUenInlwV7Wmb-113" style="edgeStyle=orthogonalEdgeStyle;rounded=0;orthogonalLoop=1;jettySize=auto;html=1;exitX=1;exitY=0.5;exitDx=0;exitDy=0;entryX=0;entryY=0.5;entryDx=0;entryDy=0;" edge="1" parent="WIyWlLk6GJQsqaUBKTNV-1" source="ZOIO8PiVUenInlwV7Wmb-15" target="ZOIO8PiVUenInlwV7Wmb-25">
          <mxGeometry relative="1" as="geometry" />
        </mxCell>
        <mxCell id="ZOIO8PiVUenInlwV7Wmb-15" value="&lt;div&gt;dV&lt;/div&gt;&lt;div&gt;dweights&lt;/div&gt;" style="rounded=1;whiteSpace=wrap;html=1;" vertex="1" parent="WIyWlLk6GJQsqaUBKTNV-1">
          <mxGeometry x="260" y="1470" width="120" height="60" as="geometry" />
        </mxCell>
        <mxCell id="ZOIO8PiVUenInlwV7Wmb-24" style="edgeStyle=orthogonalEdgeStyle;rounded=0;orthogonalLoop=1;jettySize=auto;html=1;" edge="1" parent="WIyWlLk6GJQsqaUBKTNV-1" source="ZOIO8PiVUenInlwV7Wmb-17" target="ZOIO8PiVUenInlwV7Wmb-20">
          <mxGeometry relative="1" as="geometry" />
        </mxCell>
        <mxCell id="ZOIO8PiVUenInlwV7Wmb-17" value="&lt;div&gt;dweights&lt;/div&gt;&lt;div&gt;dinterest&lt;/div&gt;" style="rounded=1;whiteSpace=wrap;html=1;" vertex="1" parent="WIyWlLk6GJQsqaUBKTNV-1">
          <mxGeometry x="120" y="1650" width="120" height="60" as="geometry" />
        </mxCell>
        <mxCell id="ZOIO8PiVUenInlwV7Wmb-115" style="edgeStyle=orthogonalEdgeStyle;rounded=0;orthogonalLoop=1;jettySize=auto;html=1;entryX=0.5;entryY=1;entryDx=0;entryDy=0;exitX=0.5;exitY=0;exitDx=0;exitDy=0;" edge="1" parent="WIyWlLk6GJQsqaUBKTNV-1" source="ZOIO8PiVUenInlwV7Wmb-20" target="ZOIO8PiVUenInlwV7Wmb-41">
          <mxGeometry relative="1" as="geometry" />
        </mxCell>
        <mxCell id="ZOIO8PiVUenInlwV7Wmb-20" value="&lt;div&gt;dV&lt;/div&gt;&lt;div&gt;dinterest&lt;br&gt;&lt;/div&gt;" style="rounded=1;whiteSpace=wrap;html=1;arcSize=20;" vertex="1" parent="WIyWlLk6GJQsqaUBKTNV-1">
          <mxGeometry x="90" y="1475" width="150" height="50" as="geometry" />
        </mxCell>
        <mxCell id="ZOIO8PiVUenInlwV7Wmb-107" style="edgeStyle=orthogonalEdgeStyle;rounded=0;orthogonalLoop=1;jettySize=auto;html=1;exitX=0.5;exitY=0;exitDx=0;exitDy=0;" edge="1" parent="WIyWlLk6GJQsqaUBKTNV-1" source="ZOIO8PiVUenInlwV7Wmb-21" target="ZOIO8PiVUenInlwV7Wmb-25">
          <mxGeometry relative="1" as="geometry" />
        </mxCell>
        <mxCell id="ZOIO8PiVUenInlwV7Wmb-21" value="&lt;div&gt;dweights&lt;/div&gt;&lt;div&gt;dsimilarity&lt;br&gt;&lt;/div&gt;" style="rounded=1;whiteSpace=wrap;html=1;" vertex="1" parent="WIyWlLk6GJQsqaUBKTNV-1">
          <mxGeometry x="400" y="1640" width="120" height="60" as="geometry" />
        </mxCell>
        <mxCell id="ZOIO8PiVUenInlwV7Wmb-105" style="edgeStyle=orthogonalEdgeStyle;rounded=0;orthogonalLoop=1;jettySize=auto;html=1;exitX=0.5;exitY=0;exitDx=0;exitDy=0;entryX=0.5;entryY=1;entryDx=0;entryDy=0;" edge="1" parent="WIyWlLk6GJQsqaUBKTNV-1" source="ZOIO8PiVUenInlwV7Wmb-25" target="ZOIO8PiVUenInlwV7Wmb-0">
          <mxGeometry relative="1" as="geometry" />
        </mxCell>
        <mxCell id="ZOIO8PiVUenInlwV7Wmb-58" style="edgeStyle=orthogonalEdgeStyle;rounded=0;orthogonalLoop=1;jettySize=auto;html=1;exitX=0.5;exitY=0;exitDx=0;exitDy=0;" edge="1" parent="WIyWlLk6GJQsqaUBKTNV-1" source="ZOIO8PiVUenInlwV7Wmb-33" target="ZOIO8PiVUenInlwV7Wmb-57">
          <mxGeometry relative="1" as="geometry" />
        </mxCell>
        <mxCell id="ZOIO8PiVUenInlwV7Wmb-33" value="&lt;div&gt;dV&lt;/div&gt;&lt;div&gt;dcompare_input&lt;br&gt;&lt;/div&gt;" style="rounded=1;whiteSpace=wrap;html=1;" vertex="1" parent="WIyWlLk6GJQsqaUBKTNV-1">
          <mxGeometry x="767" y="1200" width="120" height="60" as="geometry" />
        </mxCell>
        <mxCell id="ZOIO8PiVUenInlwV7Wmb-42" style="edgeStyle=orthogonalEdgeStyle;rounded=0;orthogonalLoop=1;jettySize=auto;html=1;entryX=0;entryY=0.5;entryDx=0;entryDy=0;" edge="1" parent="WIyWlLk6GJQsqaUBKTNV-1" source="ZOIO8PiVUenInlwV7Wmb-40" target="ZOIO8PiVUenInlwV7Wmb-41">
          <mxGeometry relative="1" as="geometry" />
        </mxCell>
        <mxCell id="ZOIO8PiVUenInlwV7Wmb-45" style="edgeStyle=orthogonalEdgeStyle;rounded=0;orthogonalLoop=1;jettySize=auto;html=1;entryX=0.5;entryY=1;entryDx=0;entryDy=0;" edge="1" parent="WIyWlLk6GJQsqaUBKTNV-1" source="ZOIO8PiVUenInlwV7Wmb-41" target="ZOIO8PiVUenInlwV7Wmb-44">
          <mxGeometry relative="1" as="geometry" />
        </mxCell>
        <mxCell id="ZOIO8PiVUenInlwV7Wmb-41" value="&lt;div&gt;back&lt;/div&gt;&lt;div&gt;phase &lt;br&gt;&lt;/div&gt;&lt;div&gt;space&lt;br&gt;&lt;/div&gt;" style="ellipse;whiteSpace=wrap;html=1;aspect=fixed;" vertex="1" parent="WIyWlLk6GJQsqaUBKTNV-1">
          <mxGeometry x="260" y="1128" width="80" height="80" as="geometry" />
        </mxCell>
        <mxCell id="ZOIO8PiVUenInlwV7Wmb-116" style="edgeStyle=orthogonalEdgeStyle;rounded=0;orthogonalLoop=1;jettySize=auto;html=1;exitX=0.5;exitY=0;exitDx=0;exitDy=0;entryX=0.5;entryY=1;entryDx=0;entryDy=0;" edge="1" parent="WIyWlLk6GJQsqaUBKTNV-1" source="ZOIO8PiVUenInlwV7Wmb-44" target="UZnxH5_KKz7nb18Rbbq1-23">
          <mxGeometry relative="1" as="geometry" />
        </mxCell>
        <mxCell id="ZOIO8PiVUenInlwV7Wmb-44" value="&lt;div&gt;dV&lt;/div&gt;&lt;div&gt;dstraight&lt;br&gt;&lt;/div&gt;" style="rounded=1;whiteSpace=wrap;html=1;" vertex="1" parent="WIyWlLk6GJQsqaUBKTNV-1">
          <mxGeometry x="170" y="1010" width="120" height="60" as="geometry" />
        </mxCell>
        <mxCell id="ZOIO8PiVUenInlwV7Wmb-53" style="edgeStyle=orthogonalEdgeStyle;rounded=0;orthogonalLoop=1;jettySize=auto;html=1;entryX=0.5;entryY=1;entryDx=0;entryDy=0;" edge="1" parent="WIyWlLk6GJQsqaUBKTNV-1" source="ZOIO8PiVUenInlwV7Wmb-50" target="ZOIO8PiVUenInlwV7Wmb-52">
          <mxGeometry relative="1" as="geometry" />
        </mxCell>
        <mxCell id="ZOIO8PiVUenInlwV7Wmb-50" value="&lt;div&gt;dV&lt;/div&gt;&lt;div&gt;dflowparts&lt;br&gt;&lt;/div&gt;" style="rounded=1;whiteSpace=wrap;html=1;" vertex="1" parent="WIyWlLk6GJQsqaUBKTNV-1">
          <mxGeometry x="310" y="730" width="120" height="60" as="geometry" />
        </mxCell>
        <mxCell id="ZOIO8PiVUenInlwV7Wmb-55" style="edgeStyle=orthogonalEdgeStyle;rounded=0;orthogonalLoop=1;jettySize=auto;html=1;entryX=0.5;entryY=1;entryDx=0;entryDy=0;" edge="1" parent="WIyWlLk6GJQsqaUBKTNV-1" source="ZOIO8PiVUenInlwV7Wmb-52" target="ZOIO8PiVUenInlwV7Wmb-54">
          <mxGeometry relative="1" as="geometry" />
        </mxCell>
        <mxCell id="ZOIO8PiVUenInlwV7Wmb-52" value="&lt;div&gt;fuse&lt;/div&gt;&lt;div&gt;image&lt;/div&gt;&lt;div&gt;parts&lt;br&gt;&lt;/div&gt;" style="ellipse;whiteSpace=wrap;html=1;aspect=fixed;" vertex="1" parent="WIyWlLk6GJQsqaUBKTNV-1">
          <mxGeometry x="330" y="610" width="80" height="80" as="geometry" />
        </mxCell>
        <mxCell id="ZOIO8PiVUenInlwV7Wmb-72" style="edgeStyle=orthogonalEdgeStyle;rounded=0;orthogonalLoop=1;jettySize=auto;html=1;exitX=0.5;exitY=0;exitDx=0;exitDy=0;entryX=0.5;entryY=1;entryDx=0;entryDy=0;" edge="1" parent="WIyWlLk6GJQsqaUBKTNV-1" source="ZOIO8PiVUenInlwV7Wmb-54" target="UZnxH5_KKz7nb18Rbbq1-7">
          <mxGeometry relative="1" as="geometry" />
        </mxCell>
        <mxCell id="ZOIO8PiVUenInlwV7Wmb-54" value="&lt;div&gt;dV&lt;/div&gt;&lt;div&gt;dflow&lt;/div&gt;&lt;div&gt;weights&lt;br&gt;&lt;/div&gt;" style="rounded=1;whiteSpace=wrap;html=1;" vertex="1" parent="WIyWlLk6GJQsqaUBKTNV-1">
          <mxGeometry x="310" y="500" width="120" height="60" as="geometry" />
        </mxCell>
        <mxCell id="ZOIO8PiVUenInlwV7Wmb-64" style="edgeStyle=orthogonalEdgeStyle;rounded=0;orthogonalLoop=1;jettySize=auto;html=1;exitX=0.5;exitY=0;exitDx=0;exitDy=0;entryX=0.5;entryY=1;entryDx=0;entryDy=0;" edge="1" parent="WIyWlLk6GJQsqaUBKTNV-1" source="ZOIO8PiVUenInlwV7Wmb-57" target="ZOIO8PiVUenInlwV7Wmb-63">
          <mxGeometry relative="1" as="geometry" />
        </mxCell>
        <mxCell id="ZOIO8PiVUenInlwV7Wmb-57" value="&lt;div&gt;prepare&lt;/div&gt;&lt;div&gt;weights&lt;/div&gt;&lt;div&gt;backward&lt;br&gt;&lt;/div&gt;" style="ellipse;whiteSpace=wrap;html=1;aspect=fixed;" vertex="1" parent="WIyWlLk6GJQsqaUBKTNV-1">
          <mxGeometry x="787" y="1080" width="80" height="80" as="geometry" />
        </mxCell>
        <mxCell id="ZOIO8PiVUenInlwV7Wmb-68" style="edgeStyle=orthogonalEdgeStyle;rounded=0;orthogonalLoop=1;jettySize=auto;html=1;exitX=0.5;exitY=0;exitDx=0;exitDy=0;entryX=0.5;entryY=1;entryDx=0;entryDy=0;" edge="1" parent="WIyWlLk6GJQsqaUBKTNV-1" source="ZOIO8PiVUenInlwV7Wmb-59" target="ZOIO8PiVUenInlwV7Wmb-67">
          <mxGeometry relative="1" as="geometry" />
        </mxCell>
        <mxCell id="ZOIO8PiVUenInlwV7Wmb-59" value="&lt;div&gt;dV&lt;/div&gt;&lt;div&gt;ddescribe&lt;/div&gt;&lt;div&gt;parts&lt;br&gt;&lt;/div&gt;" style="rounded=1;whiteSpace=wrap;html=1;" vertex="1" parent="WIyWlLk6GJQsqaUBKTNV-1">
          <mxGeometry x="810" y="790" width="120" height="60" as="geometry" />
        </mxCell>
        <mxCell id="ZOIO8PiVUenInlwV7Wmb-65" style="edgeStyle=orthogonalEdgeStyle;rounded=0;orthogonalLoop=1;jettySize=auto;html=1;exitX=0.5;exitY=0;exitDx=0;exitDy=0;entryX=0.5;entryY=1;entryDx=0;entryDy=0;" edge="1" parent="WIyWlLk6GJQsqaUBKTNV-1" source="ZOIO8PiVUenInlwV7Wmb-63" target="UZnxH5_KKz7nb18Rbbq1-27">
          <mxGeometry relative="1" as="geometry" />
        </mxCell>
        <mxCell id="ZOIO8PiVUenInlwV7Wmb-63" value="&lt;div&gt;dV&lt;/div&gt;&lt;div&gt;ddescribtion&lt;br&gt;&lt;/div&gt;" style="rounded=1;whiteSpace=wrap;html=1;" vertex="1" parent="WIyWlLk6GJQsqaUBKTNV-1">
          <mxGeometry x="767" y="990" width="120" height="60" as="geometry" />
        </mxCell>
        <mxCell id="ZOIO8PiVUenInlwV7Wmb-70" style="edgeStyle=orthogonalEdgeStyle;rounded=0;orthogonalLoop=1;jettySize=auto;html=1;" edge="1" parent="WIyWlLk6GJQsqaUBKTNV-1" source="ZOIO8PiVUenInlwV7Wmb-67" target="ZOIO8PiVUenInlwV7Wmb-69">
          <mxGeometry relative="1" as="geometry" />
        </mxCell>
        <mxCell id="ZOIO8PiVUenInlwV7Wmb-67" value="&lt;div&gt;fuse&lt;/div&gt;&lt;div&gt;image&lt;/div&gt;&lt;div&gt;parts&lt;br&gt;&lt;/div&gt;" style="ellipse;whiteSpace=wrap;html=1;aspect=fixed;" vertex="1" parent="WIyWlLk6GJQsqaUBKTNV-1">
          <mxGeometry x="710" y="600" width="80" height="80" as="geometry" />
        </mxCell>
        <mxCell id="ZOIO8PiVUenInlwV7Wmb-83" style="edgeStyle=orthogonalEdgeStyle;rounded=0;orthogonalLoop=1;jettySize=auto;html=1;entryX=0;entryY=0.5;entryDx=0;entryDy=0;" edge="1" parent="WIyWlLk6GJQsqaUBKTNV-1" source="ZOIO8PiVUenInlwV7Wmb-77" target="ZOIO8PiVUenInlwV7Wmb-81">
          <mxGeometry relative="1" as="geometry" />
        </mxCell>
        <mxCell id="ZOIO8PiVUenInlwV7Wmb-77" value="&lt;div&gt;dV&lt;/div&gt;&lt;div&gt;dinp&lt;/div&gt;&lt;div&gt;finder&lt;/div&gt;" style="rounded=1;whiteSpace=wrap;html=1;" vertex="1" parent="WIyWlLk6GJQsqaUBKTNV-1">
          <mxGeometry x="600" y="290" width="120" height="60" as="geometry" />
        </mxCell>
        <mxCell id="ZOIO8PiVUenInlwV7Wmb-82" style="edgeStyle=orthogonalEdgeStyle;rounded=0;orthogonalLoop=1;jettySize=auto;html=1;entryX=0.5;entryY=1;entryDx=0;entryDy=0;" edge="1" parent="WIyWlLk6GJQsqaUBKTNV-1" source="ZOIO8PiVUenInlwV7Wmb-79" target="ZOIO8PiVUenInlwV7Wmb-81">
          <mxGeometry relative="1" as="geometry" />
        </mxCell>
        <mxCell id="ZOIO8PiVUenInlwV7Wmb-79" value="&lt;div&gt;dV&lt;/div&gt;&lt;div&gt;dinp&lt;/div&gt;&lt;div&gt;describe&lt;br&gt;&lt;/div&gt;" style="rounded=1;whiteSpace=wrap;html=1;" vertex="1" parent="WIyWlLk6GJQsqaUBKTNV-1">
          <mxGeometry x="750" y="290" width="120" height="60" as="geometry" />
        </mxCell>
        <mxCell id="ZOIO8PiVUenInlwV7Wmb-84" style="edgeStyle=orthogonalEdgeStyle;rounded=0;orthogonalLoop=1;jettySize=auto;html=1;exitX=0.5;exitY=0;exitDx=0;exitDy=0;" edge="1" parent="WIyWlLk6GJQsqaUBKTNV-1" source="ZOIO8PiVUenInlwV7Wmb-81" target="ZOIO8PiVUenInlwV7Wmb-85">
          <mxGeometry relative="1" as="geometry">
            <mxPoint x="600" y="50" as="targetPoint" />
          </mxGeometry>
        </mxCell>
        <mxCell id="ZOIO8PiVUenInlwV7Wmb-90" style="edgeStyle=orthogonalEdgeStyle;rounded=0;orthogonalLoop=1;jettySize=auto;html=1;exitX=1;exitY=0.5;exitDx=0;exitDy=0;entryX=0.5;entryY=1;entryDx=0;entryDy=0;" edge="1" parent="WIyWlLk6GJQsqaUBKTNV-1" source="ZOIO8PiVUenInlwV7Wmb-81" target="ZOIO8PiVUenInlwV7Wmb-86">
          <mxGeometry relative="1" as="geometry" />
        </mxCell>
        <mxCell id="ZOIO8PiVUenInlwV7Wmb-81" value="&lt;div&gt;combine&lt;/div&gt;&lt;div&gt;images&lt;/div&gt;&lt;div&gt;backward&lt;br&gt;&lt;/div&gt;" style="ellipse;whiteSpace=wrap;html=1;aspect=fixed;" vertex="1" parent="WIyWlLk6GJQsqaUBKTNV-1">
          <mxGeometry x="680" y="115" width="80" height="80" as="geometry" />
        </mxCell>
        <mxCell id="ZOIO8PiVUenInlwV7Wmb-85" value="&lt;div&gt;dV&lt;/div&gt;&lt;div&gt;dI1&lt;br&gt;&lt;/div&gt;" style="rounded=1;whiteSpace=wrap;html=1;" vertex="1" parent="WIyWlLk6GJQsqaUBKTNV-1">
          <mxGeometry x="640" y="10" width="120" height="60" as="geometry" />
        </mxCell>
        <mxCell id="ZOIO8PiVUenInlwV7Wmb-86" value="&lt;div&gt;dV&lt;/div&gt;&lt;div&gt;dI2&lt;/div&gt;" style="rounded=1;whiteSpace=wrap;html=1;" vertex="1" parent="WIyWlLk6GJQsqaUBKTNV-1">
          <mxGeometry x="790" y="10" width="120" height="60" as="geometry" />
        </mxCell>
        <mxCell id="ZOIO8PiVUenInlwV7Wmb-97" style="edgeStyle=orthogonalEdgeStyle;rounded=0;orthogonalLoop=1;jettySize=auto;html=1;exitX=0.5;exitY=0;exitDx=0;exitDy=0;entryX=0.5;entryY=1;entryDx=0;entryDy=0;" edge="1" parent="WIyWlLk6GJQsqaUBKTNV-1" source="ZOIO8PiVUenInlwV7Wmb-69" target="UZnxH5_KKz7nb18Rbbq1-9">
          <mxGeometry relative="1" as="geometry" />
        </mxCell>
        <mxCell id="ZOIO8PiVUenInlwV7Wmb-69" value="&lt;div&gt;dV&lt;/div&gt;&lt;div&gt;ddescribe_weights&lt;/div&gt;" style="rounded=1;whiteSpace=wrap;html=1;" vertex="1" parent="WIyWlLk6GJQsqaUBKTNV-1">
          <mxGeometry x="690" y="500" width="120" height="60" as="geometry" />
        </mxCell>
        <mxCell id="ZOIO8PiVUenInlwV7Wmb-25" value="&lt;div&gt;dV&lt;/div&gt;&lt;div&gt;dsim&lt;br&gt;&lt;/div&gt;" style="rounded=1;whiteSpace=wrap;html=1;" vertex="1" parent="WIyWlLk6GJQsqaUBKTNV-1">
          <mxGeometry x="400" y="1470" width="120" height="60" as="geometry" />
        </mxCell>
        <mxCell id="ZOIO8PiVUenInlwV7Wmb-40" value="&lt;div&gt;dinterest&lt;/div&gt;&lt;div&gt;dstraight&lt;br&gt;&lt;/div&gt;" style="rounded=1;whiteSpace=wrap;html=1;" vertex="1" parent="WIyWlLk6GJQsqaUBKTNV-1">
          <mxGeometry x="115" y="1138" width="120" height="60" as="geometry" />
        </mxCell>
        <mxCell id="ZOIO8PiVUenInlwV7Wmb-114" style="edgeStyle=orthogonalEdgeStyle;rounded=0;orthogonalLoop=1;jettySize=auto;html=1;" edge="1" parent="WIyWlLk6GJQsqaUBKTNV-1" source="ZOIO8PiVUenInlwV7Wmb-4" target="ZOIO8PiVUenInlwV7Wmb-40">
          <mxGeometry relative="1" as="geometry">
            <mxPoint x="710" y="990" as="targetPoint" />
            <mxPoint x="90" y="1168" as="sourcePoint" />
          </mxGeometry>
        </mxCell>
      </root>
    </mxGraphModel>
  </diagram>
  <diagram id="6CxLIzRuY1vgyYmdEl1o" name="Page-2">
    <mxGraphModel dx="1422" dy="861" grid="1" gridSize="10" guides="1" tooltips="1" connect="1" arrows="1" fold="1" page="1" pageScale="1" pageWidth="850" pageHeight="1100" math="0" shadow="0">
      <root>
        <mxCell id="WPxsMyJL-1SWs4HCRl8u-0" />
        <mxCell id="WPxsMyJL-1SWs4HCRl8u-1" parent="WPxsMyJL-1SWs4HCRl8u-0" />
      </root>
    </mxGraphModel>
  </diagram>
</mxfile>
